<?xml version="1.0" encoding="UTF-8"?>
<svg height="600" width="800" xmlns="http://www.w3.org/2000/svg" xmlns:xlink="http://www.w3.org/1999/xlink">
    <style>
        .cls-1 { fill: none; stroke-linecap: round; stroke-linejoin: round; stroke: #000000 }
    </style>
    <g id="Notes" font-family="'LucidaGrande', 'Lucida Grande', sans-serif" font-size="13">
        <rect fill="white" height="600.0" width="800.0" x="0.0" y="0.0" />
        <g font-size="13">
            <text x="18.0" y="176.0">Small</text>
            <text x="18.0" y="376.0">Medium</text>
            <text x="18.0" y="576.0">Large</text>
        </g>
        <g font-size="9">
            <text x="250.0" y="30.0">Ultralight</text>
            <text x="450.0" y="30.0">Regular</text>
            <text x="650.0" y="30.0">Black</text>
            <text id="template-version" fill="#505050" text-anchor="end" x="785.0" y="575.0">Template v.3.0</text>
            <a href="https://github.com/swhitty/SwiftDraw">
                <text fill="#505050" text-anchor="end" x="785.0" y="590.0">https://github.com/swhitty/SwiftDraw</text>
            </a>
        </g>
    </g>
    <g id="Guides" stroke="rgb(39, 170, 225)" stroke-width="0.5">
        <path id="Capline-S" d="M18,76 l800,0" />
        <path id="H-reference" d="M85,145.755 L87.685,145.755 L113.369,79.287 L114.052,79.287 L114.052,76 L112.148,76 L85,145.755 Z M95.693,121.536 L130.996,121.536 L130.263,119.313 L96.474,119.313 L95.693,121.536 Z M139.15,145.755 L141.787,145.755 L114.638,76 L113.466,76 L113.466,79.287 L139.15,145.755 Z" stroke="none" />
        <path id="Baseline-S" d="M18,146 l800,0" />
        <path id="left-margin-Ultralight-S" d="M221,56 l0,110" />
        <path id="right-margin-Ultralight-S" d="M309,56 l0,110" />
        <path id="left-margin-Regular-S" d="M421,56 l0,110" />
        <path id="right-margin-Regular-S" d="M509,56 l0,110" />
        <path id="left-margin-Black-S" d="M621,56 l0,110" />
        <path id="right-margin-Black-S" d="M709,56 l0,110" />
        <path id="Capline-M" d="M18,276 l800,0" />
        <path id="Baseline-M" d="M18,346 l800,0" />
        <path id="Capline-L" d="M18,476 l800,0" />
        <path id="Baseline-L" d="M18,546 l800,0" />
    </g>
    <g id="Symbols">
        <g id="Ultralight-S">
            <path d="M292.014,77.892 C294.353,81.751 295.529,86.202 295.4,90.712 C295.399,104.617 285.757,122.752 269.687,144.002 L270.681,143.507 L244.024,143.507 L245.254,144.548 L234.573,80.728 L233.462,82.174 L256.778,79.958 L255.424,78.872 L261.084,124.292 C261.23,125.463 262.77,125.794 263.384,124.787 C270.314,113.427 275.355,101.105 275.355,92.842 C275.5,88.81 274.697,84.755 273.01,81.041 L272.124,82.778 L293.328,78.468 L292.014,77.892 Z M294.145,76.6 C293.873,76.15 293.347,75.92 292.831,76.025 L271.627,80.335 C270.842,80.495 270.409,81.343 270.741,82.072 C272.268,85.435 272.995,89.106 272.863,92.798 C272.862,100.519 267.964,112.494 261.257,123.489 L263.557,123.984 L257.897,78.564 C257.814,77.895 257.214,77.413 256.542,77.477 L233.226,79.693 C232.506,79.761 231.996,80.426 232.115,81.139 L242.795,144.959 C242.896,145.56 243.415,146 244.024,146 L270.681,146 C271.072,146 271.44,145.817 271.675,145.505 C288.07,123.825 297.892,105.353 297.892,90.748 C298.034,85.794 296.733,80.869 294.145,76.6 Z" />
        </g>
        <g id="Regular-S">
            <path d="M492.014,77.892 C494.353,81.751 495.529,86.202 495.4,90.712 C495.399,104.617 485.757,122.752 469.687,144.002 L470.681,143.507 L444.024,143.507 L445.254,144.548 L434.573,80.728 L433.462,82.174 L456.778,79.958 L455.424,78.872 L461.084,124.292 C461.23,125.463 462.77,125.794 463.384,124.787 C470.314,113.427 475.355,101.105 475.355,92.842 C475.5,88.81 474.697,84.755 473.01,81.041 L472.124,82.778 L493.328,78.468 L492.014,77.892 Z M494.145,76.6 C493.873,76.15 493.347,75.92 492.831,76.025 L471.627,80.335 C470.842,80.495 470.409,81.343 470.741,82.072 C472.268,85.435 472.995,89.106 472.863,92.798 C472.862,100.519 467.964,112.494 461.257,123.489 L463.557,123.984 L457.897,78.564 C457.814,77.895 457.214,77.413 456.542,77.477 L433.226,79.693 C432.507,79.761 431.996,80.426 432.115,81.139 L442.795,144.959 C442.896,145.56 443.415,146 444.024,146 L470.681,146 C471.072,146 471.44,145.817 471.675,145.505 C488.07,123.825 497.892,105.353 497.892,90.748 C498.034,85.794 496.733,80.869 494.145,76.6 Z" />
        </g>
        <g id="Black-S">
            <path d="M692.014,77.892 C694.353,81.751 695.529,86.202 695.4,90.712 C695.399,104.617 685.757,122.752 669.687,144.002 L670.681,143.507 L644.024,143.507 L645.254,144.548 L634.574,80.728 L633.462,82.174 L656.778,79.958 L655.424,78.872 L661.084,124.292 C661.23,125.463 662.77,125.794 663.385,124.787 C670.314,113.427 675.355,101.105 675.355,92.842 C675.5,88.81 674.697,84.755 673.01,81.041 L672.124,82.778 L693.328,78.468 L692.014,77.892 Z M694.145,76.6 C693.873,76.15 693.347,75.92 692.831,76.025 L671.627,80.335 C670.842,80.495 670.409,81.343 670.741,82.072 C672.268,85.435 672.995,89.106 672.863,92.798 C672.862,100.519 667.964,112.494 661.257,123.489 L663.557,123.984 L657.897,78.564 C657.814,77.895 657.214,77.413 656.542,77.477 L633.226,79.693 C632.507,79.761 631.996,80.426 632.115,81.139 L642.795,144.959 C642.896,145.56 643.415,146 644.024,146 L670.681,146 C671.072,146 671.44,145.817 671.675,145.505 C688.07,123.825 697.892,105.353 697.892,90.748 C698.034,85.794 696.733,80.869 694.145,76.6 Z" />
        </g>
    </g>
</svg>